<svg id="visual" viewBox="0 0 900 600" width="900" height="600" xmlns="http://www.w3.org/2000/svg" xmlns:xlink="http://www.w3.org/1999/xlink" version="1.1"><path d="M0 73L18.8 77C37.7 81 75.3 89 112.8 88C150.3 87 187.7 77 225.2 77C262.7 77 300.3 87 337.8 81C375.3 75 412.7 53 450.2 48C487.7 43 525.3 55 562.8 62C600.3 69 637.7 71 675.2 68C712.7 65 750.3 57 787.8 56C825.3 55 862.7 61 881.3 64L900 67L900 0L881.3 0C862.7 0 825.3 0 787.8 0C750.3 0 712.7 0 675.2 0C637.7 0 600.3 0 562.8 0C525.3 0 487.7 0 450.2 0C412.7 0 375.3 0 337.8 0C300.3 0 262.7 0 225.2 0C187.7 0 150.3 0 112.8 0C75.3 0 37.7 0 18.8 0L0 0Z" fill="#000000"></path><path d="M0 133L18.8 144C37.7 155 75.3 177 112.8 179C150.3 181 187.7 163 225.2 154C262.7 145 300.3 145 337.8 144C375.3 143 412.7 141 450.2 140C487.7 139 525.3 139 562.8 137C600.3 135 637.7 131 675.2 129C712.7 127 750.3 127 787.8 131C825.3 135 862.7 143 881.3 147L900 151L900 65L881.3 62C862.7 59 825.3 53 787.8 54C750.3 55 712.7 63 675.2 66C637.7 69 600.3 67 562.8 60C525.3 53 487.7 41 450.2 46C412.7 51 375.3 73 337.8 79C300.3 85 262.7 75 225.2 75C187.7 75 150.3 85 112.8 86C75.3 87 37.7 79 18.8 75L0 71Z" fill="#000509"></path><path d="M0 199L18.8 207C37.7 215 75.3 231 112.8 233C150.3 235 187.7 223 225.2 213C262.7 203 300.3 195 337.8 194C375.3 193 412.7 199 450.2 199C487.7 199 525.3 193 562.8 192C600.3 191 637.7 195 675.2 190C712.7 185 750.3 171 787.8 174C825.3 177 862.7 197 881.3 207L900 217L900 149L881.3 145C862.7 141 825.3 133 787.8 129C750.3 125 712.7 125 675.2 127C637.7 129 600.3 133 562.8 135C525.3 137 487.7 137 450.2 138C412.7 139 375.3 141 337.8 142C300.3 143 262.7 143 225.2 152C187.7 161 150.3 179 112.8 177C75.3 175 37.7 153 18.8 142L0 131Z" fill="#00080c"></path><path d="M0 343L18.8 354C37.7 365 75.3 387 112.8 392C150.3 397 187.7 385 225.2 374C262.7 363 300.3 353 337.8 348C375.3 343 412.7 343 450.2 335C487.7 327 525.3 311 562.8 307C600.3 303 637.7 311 675.2 320C712.7 329 750.3 339 787.8 356C825.3 373 862.7 397 881.3 409L900 421L900 215L881.3 205C862.7 195 825.3 175 787.8 172C750.3 169 712.7 183 675.2 188C637.7 193 600.3 189 562.8 190C525.3 191 487.7 197 450.2 197C412.7 197 375.3 191 337.8 192C300.3 193 262.7 201 225.2 211C187.7 221 150.3 233 112.8 231C75.3 229 37.7 213 18.8 205L0 197Z" fill="#020b0e"></path><path d="M0 439L18.8 443C37.7 447 75.3 455 112.8 466C150.3 477 187.7 491 225.2 493C262.7 495 300.3 485 337.8 470C375.3 455 412.7 435 450.2 423C487.7 411 525.3 407 562.8 410C600.3 413 637.7 423 675.2 433C712.7 443 750.3 453 787.8 459C825.3 465 862.7 467 881.3 468L900 469L900 419L881.3 407C862.7 395 825.3 371 787.8 354C750.3 337 712.7 327 675.2 318C637.7 309 600.3 301 562.8 305C525.3 309 487.7 325 450.2 333C412.7 341 375.3 341 337.8 346C300.3 351 262.7 361 225.2 372C187.7 383 150.3 395 112.8 390C75.3 385 37.7 363 18.8 352L0 341Z" fill="#050d11"></path><path d="M0 601L18.8 601C37.7 601 75.3 601 112.8 601C150.3 601 187.7 601 225.2 601C262.7 601 300.3 601 337.8 601C375.3 601 412.7 601 450.2 601C487.7 601 525.3 601 562.8 601C600.3 601 637.7 601 675.2 601C712.7 601 750.3 601 787.8 601C825.3 601 862.7 601 881.3 601L900 601L900 467L881.3 466C862.7 465 825.3 463 787.8 457C750.3 451 712.7 441 675.2 431C637.7 421 600.3 411 562.8 408C525.3 405 487.7 409 450.2 421C412.7 433 375.3 453 337.8 468C300.3 483 262.7 493 225.2 491C187.7 489 150.3 475 112.8 464C75.3 453 37.7 445 18.8 441L0 437Z" fill="#081013"></path></svg>